<svg width="800" height="400" xmlns="http://www.w3.org/2000/svg">
  <defs>
    <linearGradient id="grad3" x1="0%" y1="0%" x2="100%" y2="100%">
      <stop offset="0%" style="stop-color:#0a192f;stop-opacity:1" />
      <stop offset="100%" style="stop-color:#112240;stop-opacity:1" />
    </linearGradient>
  </defs>
  
  <!-- Background -->
  <rect width="800" height="400" fill="url(#grad3)"/>
  
  <!-- Heart shape -->
  <path d="M 400 280 C 400 280, 350 210, 300 210 C 250 210, 220 240, 220 280 C 220 330, 260 370, 400 450 C 540 370, 580 330, 580 280 C 580 240, 550 210, 500 210 C 450 210, 400 280, 400 280 Z" 
        fill="none" stroke="#64ffda" stroke-width="4" opacity="0.8"/>
  
  <!-- Decorative circles -->
  <circle cx="250" cy="140" r="40" fill="none" stroke="#64ffda" stroke-width="3" opacity="0.6"/>
  <circle cx="550" cy="140" r="40" fill="none" stroke="#64ffda" stroke-width="3" opacity="0.6"/>
  
  <!-- Connection line -->
  <line x1="290" y1="140" x2="510" y2="140" stroke="#64ffda" stroke-width="2" opacity="0.4" stroke-dasharray="5,5"/>
  
  <!-- Title -->
  <text x="400" y="80" font-family="Arial, sans-serif" font-size="48" fill="#64ffda" text-anchor="middle" font-weight="bold">
    GL2
  </text>
  <text x="400" y="110" font-family="Arial, sans-serif" font-size="18" fill="#8892b0" text-anchor="middle">
    Dating App
  </text>
</svg>

